{
  "accessors": [
    {
      "bufferView": 3,
      "componentType": 5126,
      "count": 2115,
      "max": [
        33.401180267333984,
        53.166538238525391,
        20.935947418212891
      ],
      "min": [
        -33.401222229003906,
        0.21216535568237305,
        -35.422832489013672
      ],
      "type": "VEC3"
    },
    {
      "bufferView": 3,
      "byteOffset": 25380,
      "componentType": 5126,
      "count": 2115,
      "max": [
        0.99984759092330933,
        0.99992245435714722,
        0.99970000982284546
      ],
      "min": [
        -0.99984818696975708,
        -1,
        -1
      ],
      "type": "VEC3"
    },
    {
      "bufferView": 4,
      "componentType": 5126,
      "count": 2115,
      "max": [
        1,
        0.99999994039535522,
        1,
        1
      ],
      "min": [
        -1,
        -1,
        -1,
        -1
      ],
      "type": "VEC4"
    },
    {
      "bufferView": 2,
      "componentType": 5126,
      "count": 2115,
      "max": [
        1.8177199363708496,
        -0.0029120000544935465
      ],
      "min": [
        0.0045309998095035553,
        -0.98695701360702515
      ],
      "type": "VEC2"
    },
    {
      "bufferView": 1,
      "componentType": 5125,
      "count": 10203,
      "max": [
        2114
      ],
      "min": [
        0
      ],
      "type": "SCALAR"
    },
    {
      "bufferView": 3,
      "byteOffset": 50760,
      "componentType": 5126,
      "count": 28,
      "max": [
        9.508976936340332,
        33.468894958496094,
        20.935947418212891
      ],
      "min": [
        -9.5090160369873047,
        19.943893432617188,
        15.098234176635742
      ],
      "type": "VEC3"
    },
    {
      "bufferView": 3,
      "byteOffset": 51096,
      "componentType": 5126,
      "count": 28,
      "max": [
        0.38258209824562073,
        0.45397594571113586,
        0.99969667196273804
      ],
      "min": [
        -0.38258209824562073,
        0.024628320708870888,
        0.82466006278991699
      ],
      "type": "VEC3"
    },
    {
      "bufferView": 4,
      "byteOffset": 33840,
      "componentType": 5126,
      "count": 28,
      "max": [
        1,
        0.13667052984237671,
        0.36847600340843201,
        1
      ],
      "min": [
        0.92286652326583862,
        -0.13667020201683044,
        -0.36847585439682007,
        1
      ],
      "type": "VEC4"
    },
    {
      "bufferView": 2,
      "byteOffset": 16920,
      "componentType": 5126,
      "count": 28,
      "max": [
        -0.021929999813437462,
        -0.03305400162935257
      ],
      "min": [
        -0.97829598188400269,
        -0.94174396991729736
      ],
      "type": "VEC2"
    },
    {
      "bufferView": 1,
      "byteOffset": 40812,
      "componentType": 5125,
      "count": 108,
      "max": [
        27
      ],
      "min": [
        0
      ],
      "type": "SCALAR"
    },
    {
      "bufferView": 5,
      "componentType": 5126,
      "count": 40,
      "max": [
        1,
        1.8203317724668191e-16,
        0.025400001555681229,
        0,
        0,
        1,
        4.1381857940336886e-09,
        0,
        0.025400001555681229,
        4.1381862381228984e-09,
        1,
        0,
        0.053556766360998154,
        0,
        0.0093170041218400002,
        1
      ],
      "min": [
        -0.025400001555681229,
        -4.1601118383471913e-11,
        -0.025400001555681229,
        0,
        -4.1381857940336886e-09,
        0.025400001555681229,
        -4.1381862381228984e-09,
        0,
        -0.025400001555681229,
        -3.0705836444988884e-23,
        -0.025400001555681229,
        0,
        -0.84042000770568848,
        -1.0506199598312378,
        -0.0093170003965497017,
        1
      ],
      "type": "MAT4"
    },
    {
      "bufferView": 0,
      "componentType": 5123,
      "count": 2115,
      "max": [
        36,
        38,
        38,
        38
      ],
      "min": [
        2,
        4,
        4,
        20
      ],
      "type": "VEC4"
    },
    {
      "bufferView": 4,
      "byteOffset": 34288,
      "componentType": 5126,
      "count": 2115,
      "max": [
        1,
        0.48387101292610168,
        0.29032272100448608,
        0.096774101257324219
      ],
      "min": [
        0.35483866930007935,
        0,
        0,
        0
      ],
      "type": "VEC4"
    },
    {
      "bufferView": 0,
      "byteOffset": 16920,
      "componentType": 5123,
      "count": 28,
      "max": [
        22,
        22,
        22,
        22
      ],
      "min": [
        22,
        22,
        22,
        22
      ],
      "type": "VEC4"
    },
    {
      "bufferView": 4,
      "byteOffset": 68128,
      "componentType": 5126,
      "count": 28,
      "max": [
        1,
        0,
        0,
        0
      ],
      "min": [
        1,
        0,
        0,
        0
      ],
      "type": "VEC4"
    }
  ],
  "asset": {
    "extras": {
      "author": "Frozenevan (https://sketchfab.com/Frozenevan)",
      "license": "CC-BY-4.0 (http://creativecommons.org/licenses/by/4.0/)",
      "source": "https://sketchfab.com/3d-models/king-boo-19e3a1798a9542b48138d70178345054",
      "title": "King Boo"
    },
    "generator": "Sketchfab-6.87.0",
    "version": "2.0"
  },
  "bufferViews": [
    {
      "buffer": 0,
      "byteLength": 17144,
      "byteOffset": 0,
      "byteStride": 8,
      "name": "shortBufferViews",
      "target": 34962
    },
    {
      "buffer": 0,
      "byteLength": 41244,
      "byteOffset": 17144,
      "name": "floatBufferViews",
      "target": 34963
    },
    {
      "buffer": 0,
      "byteLength": 17144,
      "byteOffset": 58388,
      "byteStride": 8,
      "name": "floatBufferViews",
      "target": 34962
    },
    {
      "buffer": 0,
      "byteLength": 51432,
      "byteOffset": 75532,
      "byteStride": 12,
      "name": "floatBufferViews",
      "target": 34962
    },
    {
      "buffer": 0,
      "byteLength": 68576,
      "byteOffset": 126964,
      "byteStride": 16,
      "name": "floatBufferViews",
      "target": 34962
    },
    {
      "buffer": 0,
      "byteLength": 2560,
      "byteOffset": 195540,
      "byteStride": 64,
      "name": "floatBufferViews"
    }
  ],
  "buffers": [
    {
      "byteLength": 198100,
      "uri": "scene.bin"
    }
  ],
  "images": [
    {
      "uri": "textures/M_KingTeresaLM_Body_baseColor.png"
    },
    {
      "uri": "textures/M_KingTeresaLM_Body_metallicRoughness.png"
    },
    {
      "uri": "textures/M_KingTeresaLM_Eye_baseColor.png"
    },
    {
      "uri": "textures/M_KingTeresaLM_Eye_metallicRoughness.png"
    }
  ],
  "materials": [
    {
      "doubleSided": true,
      "emissiveFactor": [
        0,
        0,
        0
      ],
      "name": "M_KingTeresaLM_Body",
      "pbrMetallicRoughness": {
        "baseColorFactor": [
          1,
          1,
          1,
          1
        ],
        "baseColorTexture": {
          "index": 0,
          "texCoord": 0
        },
        "metallicFactor": 1,
        "metallicRoughnessTexture": {
          "index": 1,
          "texCoord": 0
        },
        "roughnessFactor": 0.91860169037449568
      }
    },
    {
      "doubleSided": true,
      "emissiveFactor": [
        0,
        0,
        0
      ],
      "name": "M_KingTeresaLM_Eye",
      "pbrMetallicRoughness": {
        "baseColorFactor": [
          1,
          1,
          1,
          1
        ],
        "baseColorTexture": {
          "index": 2,
          "texCoord": 0
        },
        "metallicFactor": 1,
        "metallicRoughnessTexture": {
          "index": 3,
          "texCoord": 0
        },
        "roughnessFactor": 0.91860169037449568
      }
    }
  ],
  "meshes": [
    {
      "name": "_000_Body_LOD0_M_KingTeresaLM_Body_0",
      "primitives": [
        {
          "attributes": {
            "JOINTS_0": 11,
            "NORMAL": 1,
            "POSITION": 0,
            "TANGENT": 2,
            "TEXCOORD_0": 3,
            "WEIGHTS_0": 12
          },
          "indices": 4,
          "material": 0,
          "mode": 4
        }
      ]
    },
    {
      "name": "_003_Body_LOD0_M_KingTeresaLM_Eye_0",
      "primitives": [
        {
          "attributes": {
            "JOINTS_0": 13,
            "NORMAL": 6,
            "POSITION": 5,
            "TANGENT": 7,
            "TEXCOORD_0": 8,
            "WEIGHTS_0": 14
          },
          "indices": 9,
          "material": 1,
          "mode": 4
        }
      ]
    }
  ],
  "nodes": [
    {
      "children": [
        1
      ],
      "name": "RootNode (gltf orientation matrix)",
      "rotation": [
        -0.70710678118654746,
        -0,
        -0,
        0.70710678118654757
      ]
    },
    {
      "children": [
        2
      ],
      "name": "RootNode (model correction matrix)"
    },
    {
      "children": [
        3
      ],
      "matrix": [
        1,
        0,
        0,
        0,
        0,
        0,
        1,
        0,
        0,
        -1,
        0,
        0,
        0,
        0,
        0,
        1
      ],
      "name": "5d7380e29a0a42dfb2251759738f256e.fbx"
    },
    {
      "children": [
        4
      ],
      "name": "RootNode"
    },
    {
      "children": [
        5,
        7,
        9,
        6,
        8
      ],
      "name": ""
    },
    {
      "children": [
        10
      ],
      "name": "_rootJoint"
    },
    {
      "matrix": [
        39.370079040527344,
        -1.0097419586828951e-28,
        4.2351647362715017e-22,
        0,
        3.197459938719731e-29,
        39.370079040527344,
        6.414200477161665e-06,
        0,
        -4.2351647362716663e-22,
        -6.414200477161665e-06,
        39.370079040527344,
        0,
        0,
        -3.5527136788005009e-15,
        0,
        1
      ],
      "name": ""
    },
    {
      "mesh": 0,
      "name": "",
      "skin": 0
    },
    {
      "matrix": [
        39.370079040527344,
        0,
        0,
        0,
        0,
        39.370079040527344,
        6.414200477161665e-06,
        0,
        0,
        -6.414200477161665e-06,
        39.370079040527344,
        0,
        0,
        0,
        -4.2351647362715017e-22,
        1
      ],
      "name": ""
    },
    {
      "mesh": 1,
      "name": "",
      "skin": 0
    },
    {
      "children": [
        11,
        13,
        15,
        17,
        19,
        21,
        26,
        31,
        33,
        35,
        37,
        39,
        41,
        43,
        45,
        47
      ],
      "name": "Skl_Root_01",
      "rotation": [
        8.1460342471473268e-08,
        0,
        0,
        1
      ],
      "scale": [
        39.370082855224609,
        39.370082855224609,
        39.370082855224609
      ],
      "translation": [
        0,
        21.228351593017578,
        3.4570693969726562e-06
      ]
    },
    {
      "children": [
        12
      ],
      "name": "Crown2_02",
      "rotation": [
        7.1054273576010019e-15,
        0,
        0,
        1
      ],
      "translation": [
        0,
        0.51142001152038574,
        1.4210854715202004e-14
      ]
    },
    {
      "name": "Crown2_end_03",
      "rotation": [
        1.3234889800848443e-23,
        0,
        0,
        1
      ],
      "translation": [
        0,
        0.014664053916931152,
        1.4210854715202004e-14
      ]
    },
    {
      "children": [
        14
      ],
      "name": "Mouth1_04",
      "rotation": [
        -0,
        0.70710664987564087,
        0,
        0.70710688829421997
      ],
      "translation": [
        0,
        -6.1273574829101562e-05,
        0.014664066955447197
      ]
    },
    {
      "name": "Mouth1_end_05",
      "rotation": [
        3.3881317890172014e-21,
        -1.4210850480037267e-14,
        -1.3234889800848443e-23,
        1
      ],
      "translation": [
        -9.3132257461547852e-10,
        0.014664113521575928,
        8.2718061255302767e-25
      ]
    },
    {
      "children": [
        16
      ],
      "name": "Mouth2_06",
      "rotation": [
        -0,
        -0.70710664987564087,
        0,
        0.70710688829421997
      ],
      "translation": [
        0,
        -6.1571598052978516e-05,
        0.014664001762866974
      ]
    },
    {
      "name": "Mouth2_end_07",
      "rotation": [
        3.3881317890172014e-21,
        1.4210850480037267e-14,
        1.3234889800848443e-23,
        1
      ],
      "translation": [
        9.3132257461547852e-10,
        0.014664113521575928,
        0
      ]
    },
    {
      "children": [
        18
      ],
      "name": "Mouth3_08",
      "rotation": [
        0,
        -0.7071041464805603,
        0,
        0.70710939168930054
      ],
      "translation": [
        -2.1083922092657303e-06,
        -0.44971707463264465,
        -0.053556758910417557
      ]
    },
    {
      "name": "Mouth3_end_09",
      "rotation": [
        -5.5269675505606511e-31,
        -7.7785153128730536e-17,
        -7.1054273576010019e-15,
        1
      ],
      "translation": [
        -3.7252902984619141e-09,
        0.014664120972156525,
        1.1368683772161603e-13
      ]
    },
    {
      "children": [
        20
      ],
      "name": "MouthUp_010",
      "rotation": [
        -0,
        -0.70710664987564087,
        0,
        0.70710688829421997
      ],
      "translation": [
        0,
        -6.1631202697753906e-05,
        0.014664896763861179
      ]
    },
    {
      "name": "MouthUp_end_011",
      "rotation": [
        3.3881317890172014e-21,
        1.4210850480037267e-14,
        1.3234889800848443e-23,
        1
      ],
      "translation": [
        0,
        0.014664173126220703,
        4.4408920985006262e-16
      ]
    },
    {
      "children": [
        22
      ],
      "name": "ShoulderL_012",
      "rotation": [
        7.1054273576010019e-15,
        0,
        0,
        1
      ],
      "translation": [
        -0.024699999019503593,
        -0.0053000450134277344,
        0.0093170003965497017
      ]
    },
    {
      "children": [
        23
      ],
      "name": "ArmL_013",
      "rotation": [
        7.1054273576010019e-15,
        0,
        0,
        1
      ],
      "translation": [
        0.52319997549057007,
        0.0053090453147888184,
        -0.0093170003965497017
      ]
    },
    {
      "children": [
        24
      ],
      "name": "ElbowL_014",
      "rotation": [
        2.1316282072803006e-14,
        0,
        0,
        1
      ],
      "translation": [
        0.14650005102157593,
        0,
        0
      ]
    },
    {
      "children": [
        25
      ],
      "name": "HandL_015",
      "rotation": [
        1.4210854715202004e-14,
        0,
        0,
        1
      ],
      "translation": [
        0.12996995449066162,
        7.9870223999023438e-06,
        -7.9999999798019417e-06
      ]
    },
    {
      "name": "HandL_end_016",
      "rotation": [
        1.4210854715202004e-14,
        0,
        0,
        1
      ],
      "translation": [
        0,
        0.014664113521575928,
        9.0949470177292824e-13
      ]
    },
    {
      "children": [
        27
      ],
      "name": "ShoulderR_017",
      "rotation": [
        6.1232342629258393e-17,
        1,
        6.1232342629258393e-17,
        -7.5497901264043321e-08
      ],
      "translation": [
        0.024672999978065491,
        -0.0053000450134277344,
        0.0093170003965497017
      ]
    },
    {
      "children": [
        28
      ],
      "name": "ArmR_018",
      "rotation": [
        -0,
        1.9984683599281149e-21,
        4.7331654313260708e-30,
        1
      ],
      "translation": [
        0.5231890082359314,
        0.0053090453147888184,
        0.009317079558968544
      ]
    },
    {
      "children": [
        29
      ],
      "name": "ElbowR_019",
      "rotation": [
        1.3234889800848443e-23,
        1.9984683599281149e-21,
        3.1554436208840472e-30,
        1
      ],
      "translation": [
        0.14647898077964783,
        0,
        1.2805614346689254e-08
      ]
    },
    {
      "children": [
        30
      ],
      "name": "HandR_020",
      "rotation": [
        -0,
        1.9984683599281149e-21,
        4.7331654313260708e-30,
        1
      ],
      "translation": [
        0.12999999523162842,
        -1.1102230246251565e-16,
        1.1364967633653578e-08
      ]
    },
    {
      "name": "HandR_end_021",
      "rotation": [
        -0,
        2.0117032497289633e-21,
        3.1554436208840472e-30,
        1
      ],
      "translation": [
        0,
        0.014664113521575928,
        7.1054273576010019e-15
      ]
    },
    {
      "children": [
        32
      ],
      "name": "Spine1_00",
      "rotation": [
        -0,
        0.70710664987564087,
        0,
        0.70710688829421997
      ],
      "translation": [
        0,
        0.015134990215301514,
        7.1054273576010019e-15
      ]
    },
    {
      "name": "Spine1_end_022",
      "rotation": [
        3.3881317890172014e-21,
        -1.4210850480037267e-14,
        -1.3234889800848443e-23,
        1
      ],
      "translation": [
        -7.1054273576010019e-15,
        0.014664113521575928,
        0
      ]
    },
    {
      "children": [
        34
      ],
      "name": "Tail1_023",
      "rotation": [
        -0,
        0.70710664987564087,
        0,
        0.70710688829421997
      ],
      "translation": [
        0,
        -0.039199888706207275,
        -0.035920999944210052
      ]
    },
    {
      "name": "Tail1_end_024",
      "rotation": [
        3.3881317890172014e-21,
        -1.4210850480037267e-14,
        -1.3234889800848443e-23,
        1
      ],
      "translation": [
        0,
        0.014664173126220703,
        8.8817841970012523e-16
      ]
    },
    {
      "children": [
        36
      ],
      "name": "Tail2_025",
      "rotation": [
        -0,
        0.70710664987564087,
        0,
        0.70710688829421997
      ],
      "translation": [
        0,
        -0.039199948310852051,
        -0.5474810004234314
      ]
    },
    {
      "name": "Tail2_end_026",
      "rotation": [
        3.3881317890172014e-21,
        -1.4210850480037267e-14,
        -1.3234889800848443e-23,
        1
      ],
      "translation": [
        0,
        0.014664173126220703,
        0
      ]
    },
    {
      "children": [
        38
      ],
      "name": "Tail3_027",
      "rotation": [
        -0,
        0.70710664987564087,
        0,
        0.70710688829421997
      ],
      "translation": [
        0,
        -0.039200007915496826,
        -0.68503892421722412
      ]
    },
    {
      "name": "Tail3_end_028",
      "rotation": [
        3.3881317890172014e-21,
        -1.4210850480037267e-14,
        -1.3234889800848443e-23,
        1
      ],
      "translation": [
        -1.1102230246251565e-16,
        0.014664173126220703,
        0
      ]
    },
    {
      "children": [
        40
      ],
      "name": "Tail4_029",
      "rotation": [
        -0,
        0.70710664987564087,
        0,
        0.70710688829421997
      ],
      "translation": [
        0,
        -0.039200007915496826,
        -0.84042000770568848
      ]
    },
    {
      "name": "Tail4_end_030",
      "rotation": [
        3.3881317890172014e-21,
        -1.4210850480037267e-14,
        -1.3234889800848443e-23,
        1
      ],
      "translation": [
        -1.1102230246251565e-16,
        0.014664173126220703,
        0
      ]
    },
    {
      "children": [
        42
      ],
      "name": "Tongue1_031",
      "rotation": [
        -0,
        -0.70710664987564087,
        0,
        0.70710688829421997
      ],
      "translation": [
        0,
        -0.22284892201423645,
        0.051259413361549377
      ]
    },
    {
      "name": "Tongue1_end_032",
      "rotation": [
        3.3881317890172014e-21,
        1.4210850480037267e-14,
        1.3234889800848443e-23,
        1
      ],
      "translation": [
        0,
        0.014664143323898315,
        -3.5527136788005009e-15
      ]
    },
    {
      "children": [
        44
      ],
      "name": "Tongue2_033",
      "rotation": [
        -0,
        -0.70710664987564087,
        0,
        0.70710688829421997
      ],
      "translation": [
        0,
        -0.28276264667510986,
        0.18575173616409302
      ]
    },
    {
      "name": "Tongue2_end_034",
      "rotation": [
        3.3881317890172014e-21,
        1.4210850480037267e-14,
        1.3234889800848443e-23,
        1
      ],
      "translation": [
        0,
        0.014664143323898315,
        0
      ]
    },
    {
      "children": [
        46
      ],
      "name": "Tongue3_035",
      "rotation": [
        -0,
        -0.70710664987564087,
        0,
        0.70710688829421997
      ],
      "translation": [
        0,
        -0.31843692064285278,
        0.26583203673362732
      ]
    },
    {
      "name": "Tongue3_end_036",
      "rotation": [
        3.3881317890172014e-21,
        1.4210850480037267e-14,
        1.3234889800848443e-23,
        1
      ],
      "translation": [
        5.5511151231257827e-17,
        0.014664128422737122,
        1.3234889800848443e-23
      ]
    },
    {
      "children": [
        48
      ],
      "name": "Tongue4_037",
      "rotation": [
        -0,
        -0.70710664987564087,
        0,
        0.70710688829421997
      ],
      "translation": [
        0,
        -0.34754449129104614,
        0.33117184042930603
      ]
    },
    {
      "name": "Tongue4_end_038",
      "rotation": [
        3.3881317890172014e-21,
        1.4210850480037267e-14,
        1.3234889800848443e-23,
        1
      ],
      "translation": [
        0,
        0.014664128422737122,
        0
      ]
    }
  ],
  "samplers": [
    {
      "magFilter": 9729,
      "minFilter": 9987,
      "wrapS": 10497,
      "wrapT": 10497
    }
  ],
  "scene": 0,
  "scenes": [
    {
      "name": "OSG_Scene",
      "nodes": [
        0
      ]
    }
  ],
  "skins": [
    {
      "inverseBindMatrices": 10,
      "joints": [
        5,
        10,
        11,
        12,
        13,
        14,
        15,
        16,
        17,
        18,
        19,
        20,
        21,
        22,
        23,
        24,
        25,
        26,
        27,
        28,
        29,
        30,
        31,
        32,
        33,
        34,
        35,
        36,
        37,
        38,
        39,
        40,
        41,
        42,
        43,
        44,
        45,
        46,
        47,
        48
      ],
      "skeleton": 5
    }
  ],
  "textures": [
    {
      "sampler": 0,
      "source": 0
    },
    {
      "sampler": 0,
      "source": 1
    },
    {
      "sampler": 0,
      "source": 2
    },
    {
      "sampler": 0,
      "source": 3
    }
  ]
}

